HIERARCHY
ROOT Hips
{
  OFFSET 0 0 0
  CHANNELS 6 Xposition Yposition Zposition Zrotation Yrotation Xrotation
  JOINT LeftThigh
  {
    OFFSET 8.409438 0 -5.917753
    CHANNELS 3 Zrotation Yrotation Xrotation
    JOINT LeftLeg
    {
      OFFSET 0 0 -42.358652
      CHANNELS 3 Zrotation Yrotation Xrotation
      JOINT LeftFoot
      {
        OFFSET 0 0 -39.357303
        CHANNELS 3 Zrotation Yrotation Xrotation
      }
    }
  }
  JOINT RightThigh
  {
    OFFSET -8.409438 0 -5.917753
    CHANNELS 3 Zrotation Yrotation Xrotation
    JOINT RightLeg
    {
      OFFSET 0 0 -42.358652
      CHANNELS 3 Zrotation Yrotation Xrotation
      JOINT RightFoot
      {
        OFFSET 0 0 -39.357303
        CHANNELS 3 Zrotation Yrotation Xrotation
      }
    }
  }
  JOINT SpineLow
  {
    OFFSET 0 0 4.719101
    CHANNELS 3 Zrotation Yrotation Xrotation
    JOINT SpineMid
    {
      OFFSET 0 0 12.899191
      CHANNELS 3 Zrotation Yrotation Xrotation
      JOINT Chest
      {
        OFFSET 0 0 12.899191
        CHANNELS 3 Zrotation Yrotation Xrotation
        JOINT LeftShoulder
        {
          OFFSET 7.550562 1.41573 9.438202
          CHANNELS 3 Zrotation Yrotation Xrotation
          JOINT LeftArm
          {
            OFFSET 9.155056 0 4.247191
            CHANNELS 3 Zrotation Yrotation Xrotation
            JOINT LeftForearm
            {
              OFFSET 0 0 25.771955
              CHANNELS 3 Zrotation Yrotation Xrotation
              JOINT LeftHand
              {
                OFFSET 0 0 25.197169
                CHANNELS 3 Zrotation Yrotation Xrotation
              }
            }
          }
        }
        JOINT RightShoulder
        {
          OFFSET -7.550562 1.41573 9.438202
          CHANNELS 3 Zrotation Yrotation Xrotation
          JOINT RightArm
          {
            OFFSET -9.155056 0 4.247191
            CHANNELS 3 Zrotation Yrotation Xrotation
            JOINT RightForearm
            {
              OFFSET 0 0 -25.771955
              CHANNELS 3 Zrotation Yrotation Xrotation
              JOINT RightHand
              {
                OFFSET 0 0 -25.197169
                CHANNELS 3 Zrotation Yrotation Xrotation
              }
            }
          }
        }
        JOINT Neck
        {
          OFFSET 0 0 15.101124
          CHANNELS 3 Zrotation Yrotation Xrotation
          JOINT Head
          {
            OFFSET 0 0 11.325843
            CHANNELS 3 Zrotation Yrotation Xrotation
            End Site
            {
              OFFSET 0 0 14.157303
            }
          }
        }
      }
    }
  }
}
MOTION
Frames: 14
Frame Time: 0.0
0.0  93.25843  0.0  -0.788815  12.376926  -87.240618  10.79755  -20.845626  -9.176985  -10.549165  3.537945  14.669372  3.782368  1.927979  2.554877  -32.800852  -0.22109  -18.234388  -4.468014  17.738622  28.627278  4.966806  2.990912  -1.098338  5.440099  0.340409  -1.257613  14.849117  1.206638  -3.341628  14.849118  1.206638  -3.341628  8.321293  15.378148  5.268768  156.084363  15.968965  170.334056  -22.834189  41.233594  90.852309  49.078682  -43.488206  -11.685914  23.630028  -2.160157  15.670179  -177.568242  54.182422  158.567341  -43.611073  3.566359  -133.341447  86.089929  21.024585  11.373223  -24.726944  -0.433533  7.325505  -18.543153  -0.623159  5.487244  
0.0  93.25843  0.0  -0.75628  11.961689  -87.190501  10.797489  -20.915337  -9.256345  -10.452967  3.680809  15.113906  4.154994  2.037784  2.880073  -32.309042  -0.416344  -18.519536  -4.116746  17.903888  29.064214  4.877228  2.92765  -1.110398  5.361603  0.364539  -1.23855  14.633919  1.264123  -3.286173  14.633919  1.264123  -3.286173  8.16564  15.200905  5.410439  155.885163  16.017439  170.314721  -22.665469  40.889287  90.912479  48.535939  -43.564039  -11.251726  23.779682  -2.437654  15.619729  -177.879445  54.35776  158.590135  -43.519202  3.352024  -133.238524  85.681685  20.880664  11.732265  -24.432458  -0.530127  7.177747  -18.321053  -0.686246  5.372285  
0.0  93.25843  0.0  -0.75354  11.376366  -87.203566  10.961102  -20.966132  -9.3043  -10.515918  3.812068  15.418586  4.168339  2.107824  2.870614  -31.554255  -0.583683  -18.758853  -4.064484  18.129617  29.424521  4.818174  2.943174  -1.119852  5.304425  0.355891  -1.203301  14.478782  1.230155  -3.193477  14.478783  1.230155  -3.193477  7.987052  15.182999  5.589149  155.836998  15.986992  170.37525  -22.602082  40.375353  90.892016  47.802293  -43.466428  -10.641883  23.570354  -2.440372  15.57653  -177.676862  54.835698  158.635998  -43.527313  3.267766  -132.992103  85.291207  20.718363  12.417032  -24.097143  -0.522991  6.8928  -18.069622  -0.665612  5.158474  
0.0  93.25843  0.0  -0.718452  10.790892  -87.216111  11.768978  -20.992752  -9.020367  -10.444561  3.931983  15.873783  3.452127  2.078486  2.192953  -30.814209  -0.7233  -19.052476  -4.033926  18.417064  29.794313  4.782384  2.879854  -1.109911  5.206195  0.347425  -1.160497  14.211561  1.193339  -3.080981  14.211561  1.193339  -3.080981  7.964382  15.142664  5.734425  155.7649  15.828199  170.56308  -22.6605  39.740159  90.869114  47.282171  -43.266128  -10.305134  23.706431  -2.533279  15.50957  -177.581037  55.512529  158.652919  -43.873392  3.279494  -132.66817  84.948675  20.385302  13.141439  -23.749677  -0.430939  6.500083  -17.810032  -0.577151  4.867026  
0.0  93.25843  0.0  -0.713212  9.977254  -87.308826  12.307813  -20.996446  -8.854657  -10.666583  4.048547  15.919017  3.514226  2.102514  2.157521  -29.894951  -0.846449  -19.333024  -4.094284  18.710999  30.177793  4.788728  2.88087  -1.110424  5.110126  0.323349  -1.106884  13.951038  1.11223  -2.942192  13.951038  1.11223  -2.942192  8.092446  15.171732  5.927363  155.800632  15.667945  170.824499  -22.503705  38.969163  91.070042  47.353501  -42.836186  -10.363015  23.793387  -2.549357  15.430087  -177.275949  56.48433  158.593564  -44.409621  3.508688  -132.132345  84.540202  20.015475  13.859001  -23.146114  -0.383212  6.172096  -17.357794  -0.522326  4.622418  
0.0  93.25843  0.0  -0.662923  9.193583  -87.353941  13.360194  -20.927652  -8.404661  -10.659216  4.199497  16.0986  2.884998  1.976421  1.494733  -29.065787  -0.937264  -19.659503  -3.826639  18.920314  30.628949  4.873423  2.913128  -1.117994  4.993672  0.303294  -1.059237  13.634426  1.042826  -2.81892  13.634425  1.042826  -2.81892  8.307038  15.220609  6.150592  155.213305  15.5348  171.287169  -22.955848  37.948429  91.104361  48.137272  -42.05583  -10.93248  24.022103  -2.659756  15.339223  -177.136403  57.6996  158.450011  -44.863416  3.906505  -131.45533  84.097811  19.5768  14.442976  -22.73613  -0.22135  5.813306  -17.051833  -0.383137  4.358909  
0.0  93.25843  0.0  -0.661258  8.151937  -87.481089  14.082312  -20.9236  -8.166928  -10.589504  4.281761  16.106589  2.883389  1.968496  1.435282  -28.160032  -1.035802  -19.875188  -3.699537  19.061723  30.900058  4.903875  2.892655  -1.111893  4.909375  0.275144  -1.005968  13.406002  0.951973  -2.68118  13.406002  0.951973  -2.681181  8.492436  15.284895  6.394495  155.333149  15.449369  171.665092  -22.269488  36.568239  91.846962  49.354382  -40.833146  -11.784299  24.045502  -2.767718  15.214716  -176.997221  59.16882  158.098551  -45.274021  4.312229  -130.73783  83.733707  18.917917  14.758521  -22.150123  -0.247536  5.57894  -16.611978  -0.38866  4.181753  
0.0  93.25843  0.0  -0.624469  7.068574  -87.576111  14.899982  -20.746131  -7.813021  -10.097716  4.273042  16.379984  2.556095  1.817414  1.056174  -27.40385  -1.117992  -20.057825  -3.212577  19.056592  31.137628  4.954993  2.885361  -1.118719  4.83428  0.258146  -0.959276  13.202112  0.893451  -2.558741  13.202112  0.893451  -2.558742  8.556208  15.298545  6.612778  155.457325  15.406187  172.088217  -21.457495  34.75851  92.739456  50.747002  -39.169075  -12.625702  24.112471  -3.043108  15.094446  -177.287176  60.771932  157.48297  -45.664537  4.805243  -129.884927  83.483526  18.128224  14.895168  -21.635622  -0.298265  5.386352  -16.225573  -0.415186  4.035202  
0.0  93.25843  0.0  -0.569393  5.873  -87.65807  15.643748  -20.642844  -7.508487  -9.684954  4.19105  16.326893  2.500895  1.802253  1.017751  -26.741546  -1.188579  -20.204186  -2.817002  18.974592  31.169205  4.969502  2.845224  -1.122824  4.778783  0.2451  -0.909811  13.051618  0.846114  -2.427552  13.051617  0.846114  -2.427552  8.519388  15.336073  6.766767  155.770432  15.470275  172.476468  -20.273179  32.575352  93.864537  52.169096  -37.070242  -13.23594  23.834099  -3.252088  14.914113  -177.794915  62.562531  156.371967  -46.108534  5.407823  -128.918141  83.330251  17.227226  14.822665  -21.162216  -0.39054  5.187006  -15.869666  -0.47336  3.882242  
0.0  93.25843  0.0  -0.517352  4.668544  -87.793638  16.266099  -20.48345  -7.11411  -9.082149  3.975885  16.345349  2.376904  1.762743  0.930243  -26.139378  -1.219314  -20.225716  -2.133916  18.799634  31.165973  5.103503  2.84208  -1.123731  4.703249  0.225889  -0.84878  12.846646  0.779292  -2.266262  12.846646  0.779292  -2.266262  8.478469  15.408349  6.833459  156.148493  15.580351  172.899481  -19.079991  30.022729  95.040965  53.467024  -34.502459  -13.323392  23.621658  -3.509402  14.728834  -178.829108  64.479156  154.757567  -46.585341  6.15215  -127.837241  83.265572  16.243693  14.597592  -20.624916  -0.485485  4.97227  -15.465881  -0.532794  3.717818  
0.0  93.25843  0.0  -0.558631  3.471008  -87.919861  16.859845  -20.493869  -6.716317  -8.62399  3.825628  16.213096  2.278535  1.741804  0.86222  -25.642796  -1.345999  -20.204099  -1.733601  18.629845  30.947299  5.182829  2.772355  -1.115011  4.593501  0.184131  -0.804656  12.548517  0.653588  -2.155515  12.548517  0.653588  -2.155515  8.631317  15.523386  6.962609  156.739597  15.814152  173.368853  -17.701587  27.304361  96.287588  54.760135  -31.343715  -12.871348  23.341012  -3.739096  14.633642  179.597836  66.512763  152.390794  -47.064425  7.030772  -126.638584  83.277789  15.148556  14.292068  -20.001536  -0.551543  4.778569  -14.997832  -0.570917  3.570383  
0.0  93.25843  0.0  -0.62265  2.268664  -88.035525  17.312629  -20.498185  -6.308443  -8.278904  3.650981  16.003351  2.268429  1.709484  0.845813  -25.092621  -1.5008  -20.124004  -1.192279  18.410033  30.713969  5.131102  2.665937  -1.121821  4.467438  0.138215  -0.766645  12.205725  0.51754  -2.061906  12.205725  0.51754  -2.061906  8.77164  15.645684  7.087504  157.437612  16.175838  173.930943  -16.442616  24.529368  97.434908  56.091818  -27.929847  -11.675133  22.917224  -3.925661  14.662082  177.377507  68.637767  149.194017  -47.48387  7.982522  -125.304  83.344217  13.951342  13.858389  -19.315878  -0.61733  4.600362  -14.483114  -0.609246  3.434793  
0.0  93.25843  0.0  -0.725187  0.99634  -88.106652  17.769982  -20.55398  -5.905923  -8.041469  3.52265  15.727664  2.293081  1.683333  0.814209  -24.474955  -1.739924  -20.057128  -0.890206  18.248265  30.352795  5.244883  2.618991  -1.115015  4.345359  0.099425  -0.732729  11.873467  0.402076  -1.977615  11.873467  0.402076  -1.977615  8.866465  15.765317  7.146218  158.290709  16.690195  174.552287  -15.151566  21.579612  98.517782  57.509162  -24.380189  -9.661282  22.300067  -4.069948  14.674588  173.98162  70.833953  144.630508  -47.736036  8.915636  -123.863599  83.49411  12.563132  13.278024  -18.618212  -0.721945  4.405082  -13.959148  -0.676516  3.285385  
0.0  93.25843  0.0  -0.807063  -0.252002  -88.185594  18.076242  -20.596782  -5.455458  -7.8291  3.433118  15.4168  2.355391  1.633923  0.793352  -23.760264  -1.944797  -19.989186  -0.682304  18.104609  29.949373  5.348008  2.554397  -1.08653  4.222617  0.075424  -0.68905  11.538957  0.325465  -1.863729  11.538956  0.325465  -1.863729  8.787891  15.923994  7.196838  159.227538  17.372112  175.342783  -13.80665  18.314508  99.587535  59.208279  -22.620254  -7.444045  21.47185  -4.207405  14.74725  169.205544  73.034995  138.521393  -47.718921  9.78836  -122.320054  83.780783  10.945085  12.57411  -17.901029  -0.870691  4.185521  -13.420311  -0.776509  3.11674  
